<svg xmlns="http://www.w3.org/2000/svg" viewBox="0 0 240 240"><defs/><circle cx="120" cy="120" r="115"/><path fill="none" d="M175.59 53.361c-2.305-1.609-7.308.497-7.308.497l-129.61 65.34s-5.415 2.515-5.28 5.925c.137 3.411 3.468 4.687 3.468 4.687L79.997 140l12.27 53.401 8.16-46.857 52.674 33.86s2.356 2.578 5.31.688c2.953-1.89 2.515-4.537 2.515-4.537l17.393-116.42s-.427-5.164-2.732-6.772z"/><path fill="none" stroke="#000" stroke-width=".883" d="M92.271 193.4l29.812-32.412"/><g stroke-width="14.216"><path fill="#bf0000" d="M86.296 164.11c-3.066-13.435-5.616-24.503-5.669-24.595-.052-.092-9.695-2.402-21.429-5.133-11.734-2.731-22.15-5.476-23.148-6.1-2.202-1.377-2.367-4.378-.342-6.21.809-.733 31.015-16.247 67.124-34.477 45.27-22.855 66.716-33.277 69.077-33.57 3.306-.408 3.465-.324 4.623 2.448 1.133 2.712.707 6.16-7.709 62.385-9.138 61.045-9.536 62.978-12.807 62.123-.684-.179-13.517-8.215-28.518-17.86-15-9.643-27.382-17.41-27.514-17.26s-1.757 9.161-3.611 20.026-3.626 20.406-3.938 21.203c-.35.896-2.691-7.867-6.14-22.98z"/><path fill="#bf0000" d="M86.242 164.27c-4.805-20.958-5.814-24.445-7.227-24.97-.903-.336-10.532-2.695-21.396-5.243-10.865-2.548-20.571-5.146-21.568-5.774-2.176-1.367-2.375-4.39-.403-6.126 1.662-1.462 18.712-10.213 85.069-43.659 54.885-27.663 54.778-27.624 56.499-20.66.274 1.109-3.497 28.67-8.38 61.248-9.125 60.882-9.513 62.754-12.817 61.89-.683-.18-13.033-7.877-27.446-17.105s-26.84-16.948-27.616-17.154c-.776-.206-1.411.018-1.411.498 0 1.854-6.522 38.501-7.104 39.917-.408.993-2.493-6.695-6.2-22.863z"/><path fill="#fff" d="M86.331 164.9c-3.005-12.984-5.906-24.066-6.445-24.627-.54-.56-10.215-3.227-21.501-5.925-11.286-2.699-21.337-5.423-22.335-6.055-2.42-1.531-2.336-4.615.178-6.593 4.017-3.16 132.02-67.26 135.16-67.68 3.617-.486 5.195.5 5.829 3.644.412 2.044-5.095 41.16-13.644 96.921-3.719 24.252-4.561 27.176-7.603 26.38-.711-.186-13.312-8.01-28.002-17.385-14.69-9.376-27.518-16.697-27.9-16.697s-1.756 8.63-3.661 19.606-3.721 20.42-4.036 20.987c-.314.567-3.031-9.592-6.036-22.576z"/><path fill="#b4b4b4" d="M92.235 187.1c0-1.381 8.195-40.561 8.195-40.561L124 160.995l-14.034 12.21C93.12 187.862 92.235 188.471 92.235 187.1z"/></g><path fill="#e3e3e3" d="M101 147s-5.26 26.448-8.683 40.174c-.039.042-.304-.676-.589-1.596-.962-3.1-2.444-8.952-5.638-22.259-1.748-7.285-3.75-15.329-4.45-17.874-.97-3.535-1.481-4.49-1.71-5.205 0 0 78.6-68.32 80.035-65.267C161.836 78.953 101 147 101 147z"/></svg>
